<?xml version="1.0" encoding="UTF-8"?>
<svg xmlns="http://www.w3.org/2000/svg" xmlns:xlink="http://www.w3.org/1999/xlink" width="200px" height="200px" viewBox="0 0 200 200" version="1.1">
<defs>
<filter id="alpha" filterUnits="objectBoundingBox" x="0%" y="0%" width="100%" height="100%">
  <feColorMatrix type="matrix" in="SourceGraphic" values="0 0 0 0 1 0 0 0 0 1 0 0 0 0 1 0 0 0 1 0"/>
</filter>
<mask id="mask0">
  <g filter="url(#alpha)">
<rect x="0" y="0" width="200" height="200" style="fill:rgb(0%,0%,0%);fill-opacity:0.988235;stroke:none;"/>
  </g>
</mask>
<clipPath id="clip1">
  <rect x="0" y="0" width="200" height="200"/>
</clipPath>
<g id="surface5" clip-path="url(#clip1)">
<path style=" stroke:none;fill-rule:evenodd;fill:rgb(1.176471%,0.784314%,0.784314%);fill-opacity:1;" d="M 18.164062 -0.195312 C 27.539062 -0.195312 36.914062 -0.195312 46.289062 -0.195312 C 52.867188 1.363281 58.011719 5.007812 61.71875 10.742188 C 65.421875 4.820312 70.695312 1.175781 77.539062 -0.195312 C 111.914062 -0.195312 146.289062 -0.195312 180.664062 -0.195312 C 191.082031 2.148438 197.460938 8.527344 199.804688 18.945312 C 199.804688 29.621094 199.804688 40.300781 199.804688 50.976562 C 198.71875 56.203125 196.246094 60.695312 192.382812 64.453125 C 196.0625 66.035156 198.539062 68.703125 199.804688 72.460938 C 199.804688 74.542969 199.804688 76.628906 199.804688 78.710938 C 198.054688 83.695312 194.539062 86.558594 189.257812 87.304688 C 189.257812 95.378906 189.257812 103.449219 189.257812 111.523438 C 194.417969 112.386719 197.933594 115.25 199.804688 120.117188 C 199.804688 122.199219 199.804688 124.285156 199.804688 126.367188 C 198.992188 128.445312 197.820312 130.335938 196.289062 132.03125 C 197.878906 133.546875 199.050781 135.304688 199.804688 137.304688 C 199.804688 139.386719 199.804688 141.472656 199.804688 143.554688 C 198.066406 149.066406 194.289062 151.929688 188.476562 152.148438 C 188.476562 160.222656 188.476562 168.292969 188.476562 176.367188 C 194.242188 176.929688 198.015625 179.921875 199.804688 185.351562 C 199.804688 187.304688 199.804688 189.257812 199.804688 191.210938 C 198.371094 195.507812 195.507812 198.371094 191.210938 199.804688 C 157.097656 199.804688 122.980469 199.804688 88.867188 199.804688 C 78.25 197.914062 69.980469 192.445312 64.0625 183.398438 C 61.042969 192.082031 55.117188 197.550781 46.289062 199.804688 C 36.914062 199.804688 27.539062 199.804688 18.164062 199.804688 C 8.269531 197.460938 2.148438 191.339844 -0.195312 181.445312 C -0.195312 127.019531 -0.195312 72.589844 -0.195312 18.164062 C 2.148438 8.269531 8.269531 2.148438 18.164062 -0.195312 Z M 64.648438 63.085938 C 67.585938 65.921875 70.972656 68.070312 74.804688 69.53125 C 70.851562 72.054688 67.53125 75.242188 64.84375 79.101562 C 64.648438 73.765625 64.582031 68.425781 64.648438 63.085938 Z M 64.648438 119.726562 C 68.441406 125.019531 73.261719 129.121094 79.101562 132.03125 C 73.398438 134.871094 68.644531 138.84375 64.84375 143.945312 C 64.648438 135.875 64.582031 127.800781 64.648438 119.726562 Z M 64.648438 119.726562 "/>
</g>
</defs>
<g id="surface1">
<use xlink:href="#surface5" mask="url(#mask0)"/>
<path style=" stroke:none;fill-rule:evenodd;fill:rgb(76.078431%,65.490196%,88.235294%);fill-opacity:1;" d="M 27.539062 5.664062 C 23.621094 8.03125 21.015625 11.417969 19.726562 15.820312 C 17.738281 16.832031 16.371094 18.394531 15.625 20.507812 C 15.363281 41.082031 15.363281 61.652344 15.625 82.226562 C 16.140625 83.921875 17.117188 85.222656 18.554688 86.132812 C 18.164062 101.5625 18.035156 117.054688 18.164062 132.617188 C 18.164062 132.746094 18.164062 132.878906 18.164062 133.007812 C 13.996094 133.007812 9.832031 133.007812 5.664062 133.007812 C 5.597656 94.988281 5.664062 56.964844 5.859375 18.945312 C 7.617188 11.980469 11.980469 7.617188 18.945312 5.859375 C 21.808594 5.664062 24.671875 5.597656 27.539062 5.664062 Z M 27.539062 5.664062 "/>
<path style=" stroke:none;fill-rule:evenodd;fill:rgb(83.529412%,76.470588%,91.372549%);fill-opacity:1;" d="M 27.539062 5.664062 C 33.269531 5.597656 39 5.664062 44.726562 5.859375 C 52.25 7.589844 56.808594 12.210938 58.398438 19.726562 C 58.398438 57.355469 58.398438 94.988281 58.398438 132.617188 C 44.988281 132.617188 31.574219 132.617188 18.164062 132.617188 C 18.035156 117.054688 18.164062 101.5625 18.554688 86.132812 C 19.195312 86.453125 19.847656 86.777344 20.507812 87.109375 C 28.058594 87.371094 35.613281 87.371094 43.164062 87.109375 C 46.183594 86.5625 48.070312 84.804688 48.828125 81.835938 C 49.089844 73.371094 49.089844 64.910156 48.828125 56.445312 C 48.164062 54.734375 46.925781 54.085938 45.117188 54.492188 C 46.015625 52.492188 46.144531 50.410156 45.507812 48.242188 C 47.140625 48.496094 48.25 47.847656 48.828125 46.289062 C 49.089844 37.695312 49.089844 29.101562 48.828125 20.507812 C 47.980469 18.097656 46.355469 16.472656 43.945312 15.625 C 35.855469 15.308594 27.78125 15.375 19.726562 15.820312 C 21.015625 11.417969 23.621094 8.03125 27.539062 5.664062 Z M 27.539062 5.664062 "/>
<path style=" stroke:none;fill-rule:evenodd;fill:rgb(97.647059%,84.705882%,53.333333%);fill-opacity:1;" d="M 78.710938 6.054688 C 89 5.988281 99.285156 6.054688 109.570312 6.25 C 104.316406 10.050781 101.582031 15.195312 101.367188 21.679688 C 98.1875 20.757812 96.691406 21.929688 96.875 25.195312 C 97.132812 25.773438 97.460938 26.296875 97.851562 26.757812 C 92.226562 26.347656 87.992188 28.5625 85.15625 33.398438 C 84.101562 38.640625 85.988281 42.351562 90.820312 44.53125 C 94.15625 45.570312 97.542969 45.765625 100.976562 45.117188 C 100.589844 53 103.585938 59.183594 109.960938 63.671875 C 99.675781 63.867188 89.390625 63.933594 79.101562 63.867188 C 71.535156 62.484375 66.78125 58.058594 64.84375 50.585938 C 64.582031 39.910156 64.582031 29.230469 64.84375 18.554688 C 67.003906 11.648438 71.625 7.484375 78.710938 6.054688 Z M 78.710938 6.054688 "/>
<path style=" stroke:none;fill-rule:evenodd;fill:rgb(98.823529%,90.588235%,70.980392%);fill-opacity:1;" d="M 78.710938 6.054688 C 112.109375 5.597656 145.574219 5.535156 179.101562 5.859375 C 187.199219 7.316406 192.082031 12.070312 193.75 20.117188 C 194.011719 29.882812 194.011719 39.648438 193.75 49.414062 C 192.542969 56.871094 188.3125 61.625 181.054688 63.671875 C 163.75 64.121094 146.433594 64.316406 129.101562 64.257812 C 112.371094 64.257812 95.703125 64.128906 79.101562 63.867188 C 89.390625 63.933594 99.675781 63.867188 109.960938 63.671875 C 103.585938 59.183594 100.589844 53 100.976562 45.117188 C 108.296875 42.355469 110.183594 37.539062 106.640625 30.664062 C 106.09375 30.050781 105.507812 29.53125 104.882812 29.101562 C 106.90625 28.511719 108.664062 27.472656 110.15625 25.976562 C 111.457031 23.371094 110.675781 21.808594 107.8125 21.289062 C 106.402344 21.851562 105.035156 22.5 103.710938 23.242188 C 102.648438 23.105469 101.867188 22.582031 101.367188 21.679688 C 101.582031 15.195312 104.316406 10.050781 109.570312 6.25 C 99.285156 6.054688 89 5.988281 78.710938 6.054688 Z M 78.710938 6.054688 "/>
<path style=" stroke:none;fill-rule:evenodd;fill:rgb(1.176471%,0.784314%,1.176471%);fill-opacity:1;" d="M 45.507812 48.242188 C 44.472656 48.148438 43.757812 47.628906 43.359375 46.679688 C 43.230469 38.347656 43.097656 30.011719 42.96875 21.679688 C 39.421875 21.296875 35.839844 21.164062 32.226562 21.289062 C 28.613281 21.164062 25.03125 21.296875 21.484375 21.679688 C 21.222656 41.472656 21.222656 61.261719 21.484375 81.054688 C 28.488281 81.574219 35.453125 81.574219 42.382812 81.054688 C 42.625 81.011719 42.820312 80.882812 42.96875 80.664062 C 43.097656 72.460938 43.230469 64.257812 43.359375 56.054688 C 43.667969 55.21875 44.253906 54.695312 45.117188 54.492188 C 46.925781 54.085938 48.164062 54.734375 48.828125 56.445312 C 49.089844 64.910156 49.089844 73.371094 48.828125 81.835938 C 48.070312 84.804688 46.183594 86.5625 43.164062 87.109375 C 35.613281 87.371094 28.058594 87.371094 20.507812 87.109375 C 19.847656 86.777344 19.195312 86.453125 18.554688 86.132812 C 17.117188 85.222656 16.140625 83.921875 15.625 82.226562 C 15.363281 61.652344 15.363281 41.082031 15.625 20.507812 C 16.371094 18.394531 17.738281 16.832031 19.726562 15.820312 C 27.78125 15.375 35.855469 15.308594 43.945312 15.625 C 46.355469 16.472656 47.980469 18.097656 48.828125 20.507812 C 49.089844 29.101562 49.089844 37.695312 48.828125 46.289062 C 48.25 47.847656 47.140625 48.496094 45.507812 48.242188 Z M 45.507812 48.242188 "/>
<path style=" stroke:none;fill-rule:evenodd;fill:rgb(87.058824%,88.627451%,89.411765%);fill-opacity:1;" d="M 32.226562 21.289062 C 32.226562 41.210938 32.226562 61.132812 32.226562 81.054688 C 35.613281 81.054688 38.996094 81.054688 42.382812 81.054688 C 35.453125 81.574219 28.488281 81.574219 21.484375 81.054688 C 21.222656 61.261719 21.222656 41.472656 21.484375 21.679688 C 25.03125 21.296875 28.613281 21.164062 32.226562 21.289062 Z M 32.226562 21.289062 "/>
<path style=" stroke:none;fill-rule:evenodd;fill:rgb(93.333333%,93.333333%,93.333333%);fill-opacity:1;" d="M 32.226562 21.289062 C 35.839844 21.164062 39.421875 21.296875 42.96875 21.679688 C 43.097656 30.011719 43.230469 38.347656 43.359375 46.679688 C 43.757812 47.628906 44.472656 48.148438 45.507812 48.242188 C 46.144531 50.410156 46.015625 52.492188 45.117188 54.492188 C 44.253906 54.695312 43.667969 55.21875 43.359375 56.054688 C 43.230469 64.257812 43.097656 72.460938 42.96875 80.664062 C 42.820312 80.882812 42.625 81.011719 42.382812 81.054688 C 38.996094 81.054688 35.613281 81.054688 32.226562 81.054688 C 32.226562 61.132812 32.226562 41.210938 32.226562 21.289062 Z M 32.226562 21.289062 "/>
<path style=" stroke:none;fill-rule:evenodd;fill:rgb(2.745098%,1.960784%,1.568627%);fill-opacity:1;" d="M 101.367188 21.679688 C 101.867188 22.582031 102.648438 23.105469 103.710938 23.242188 C 105.035156 22.5 106.402344 21.851562 107.8125 21.289062 C 110.675781 21.808594 111.457031 23.371094 110.15625 25.976562 C 108.664062 27.472656 106.90625 28.511719 104.882812 29.101562 C 102.179688 29.328125 99.835938 28.546875 97.851562 26.757812 C 97.460938 26.296875 97.132812 25.773438 96.875 25.195312 C 96.691406 21.929688 98.1875 20.757812 101.367188 21.679688 Z M 101.367188 21.679688 "/>
<path style=" stroke:none;fill-rule:evenodd;fill:rgb(3.529412%,2.745098%,2.352941%);fill-opacity:1;" d="M 160.351562 26.757812 C 158.316406 28.375 155.972656 29.15625 153.320312 29.101562 C 150.945312 28.480469 149.058594 27.179688 147.65625 25.195312 C 147.414062 22.183594 148.78125 20.945312 151.757812 21.484375 C 152.550781 22.269531 153.464844 22.855469 154.492188 23.242188 C 155.675781 22.90625 156.714844 22.320312 157.617188 21.484375 C 160.855469 20.980469 162.09375 22.347656 161.328125 25.585938 C 160.921875 25.925781 160.59375 26.316406 160.351562 26.757812 Z M 160.351562 26.757812 "/>
<path style=" stroke:none;fill-rule:evenodd;fill:rgb(2.352941%,1.960784%,1.568627%);fill-opacity:1;" d="M 121.679688 24.804688 C 122.472656 24.742188 123.253906 24.804688 124.023438 25 C 127.410156 28.386719 130.792969 28.386719 134.179688 25 C 137.175781 24.480469 138.542969 25.71875 138.28125 28.710938 C 135.273438 32.652344 131.300781 34.152344 126.367188 33.203125 C 123.667969 32.453125 121.519531 30.953125 119.921875 28.710938 C 119.5625 26.960938 120.148438 25.65625 121.679688 24.804688 Z M 121.679688 24.804688 "/>
<path style=" stroke:none;fill-rule:evenodd;fill:rgb(99.607843%,63.137255%,67.058824%);fill-opacity:1;" d="M 97.851562 26.757812 C 99.835938 28.546875 102.179688 29.328125 104.882812 29.101562 C 105.507812 29.53125 106.09375 30.050781 106.640625 30.664062 C 110.183594 37.539062 108.296875 42.355469 100.976562 45.117188 C 97.542969 45.765625 94.15625 45.570312 90.820312 44.53125 C 85.988281 42.351562 84.101562 38.640625 85.15625 33.398438 C 87.992188 28.5625 92.226562 26.347656 97.851562 26.757812 Z M 97.851562 26.757812 "/>
<path style=" stroke:none;fill-rule:evenodd;fill:rgb(99.607843%,63.137255%,67.058824%);fill-opacity:1;" d="M 160.351562 26.757812 C 166.527344 26.164062 170.890625 28.636719 173.4375 34.179688 C 173.726562 40.160156 170.929688 43.871094 165.039062 45.3125 C 159.5 46.546875 154.878906 45.050781 151.171875 40.820312 C 148.804688 36.308594 149.519531 32.402344 153.320312 29.101562 C 155.972656 29.15625 158.316406 28.375 160.351562 26.757812 Z M 160.351562 26.757812 "/>
<path style=" stroke:none;fill-rule:evenodd;fill:rgb(99.215686%,53.72549%,59.215686%);fill-opacity:1;" d="M 113.867188 70.117188 C 108.949219 72.75 104.785156 76.332031 101.367188 80.859375 C 98.304688 80.925781 95.308594 81.121094 92.382812 81.445312 C 86.957031 82.042969 82.59375 84.515625 79.296875 88.867188 C 74.917969 95.878906 74.917969 102.910156 79.296875 109.960938 C 85.15625 116.625 92.515625 119.230469 101.367188 117.773438 C 104.613281 122.382812 108.78125 125.964844 113.867188 128.515625 C 106.054688 128.710938 98.242188 128.777344 90.429688 128.710938 C 79.351562 126.945312 71.472656 120.953125 66.796875 110.742188 C 61.921875 96.835938 65.113281 85.179688 76.367188 75.78125 C 80.007812 73.132812 84.042969 71.3125 88.476562 70.3125 C 96.9375 70.117188 105.402344 70.050781 113.867188 70.117188 Z M 113.867188 70.117188 "/>
<path style=" stroke:none;fill-rule:evenodd;fill:rgb(98.431373%,61.960784%,66.27451%);fill-opacity:1;" d="M 113.867188 70.117188 C 139.257812 70.050781 164.648438 70.117188 190.039062 70.3125 C 193.835938 72.113281 194.8125 74.914062 192.96875 78.710938 C 192.054688 80.015625 190.816406 80.859375 189.257812 81.25 C 156.964844 81.445312 124.675781 81.511719 92.382812 81.445312 C 95.308594 81.121094 98.304688 80.925781 101.367188 80.859375 C 104.785156 76.332031 108.949219 72.75 113.867188 70.117188 Z M 113.867188 70.117188 "/>
<path style=" stroke:none;fill-rule:evenodd;fill:rgb(82.745098%,84.313725%,85.098039%);fill-opacity:1;" d="M 92.773438 87.304688 C 94.464844 87.304688 96.160156 87.304688 97.851562 87.304688 C 95.417969 93.667969 94.960938 100.179688 96.484375 106.835938 C 96.90625 108.421875 97.359375 109.984375 97.851562 111.523438 C 126.367188 111.523438 154.882812 111.523438 183.398438 111.523438 C 168.296875 111.785156 153.125 111.914062 137.890625 111.914062 C 122.183594 111.976562 106.492188 111.78125 90.820312 111.328125 C 84.144531 108.71875 81.214844 103.835938 82.03125 96.679688 C 83.757812 91.367188 87.339844 88.242188 92.773438 87.304688 Z M 92.773438 87.304688 "/>
<path style=" stroke:none;fill-rule:evenodd;fill:rgb(93.72549%,93.72549%,93.72549%);fill-opacity:1;" d="M 97.851562 87.304688 C 110.871094 87.304688 123.894531 87.304688 136.914062 87.304688 C 136.785156 91.152344 136.917969 94.925781 137.304688 98.632812 C 137.769531 102.160156 139.722656 104.4375 143.164062 105.46875 C 144.335938 105.730469 145.507812 105.730469 146.679688 105.46875 C 149.242188 104.144531 151.847656 102.90625 154.492188 101.757812 C 156.863281 102.882812 159.207031 104.117188 161.523438 105.46875 C 166.601562 106.023438 169.921875 103.875 171.484375 99.023438 C 171.679688 95.121094 171.746094 91.214844 171.679688 87.304688 C 175.585938 87.304688 179.492188 87.304688 183.398438 87.304688 C 183.398438 95.378906 183.398438 103.449219 183.398438 111.523438 C 154.882812 111.523438 126.367188 111.523438 97.851562 111.523438 C 97.359375 109.984375 96.90625 108.421875 96.484375 106.835938 C 94.960938 100.179688 95.417969 93.667969 97.851562 87.304688 Z M 97.851562 87.304688 "/>
<path style=" stroke:none;fill-rule:evenodd;fill:rgb(41.176471%,41.176471%,41.176471%);fill-opacity:1;" d="M 92.773438 87.304688 C 107.550781 86.914062 122.394531 86.785156 137.304688 86.914062 C 137.304688 90.820312 137.304688 94.726562 137.304688 98.632812 C 136.917969 94.925781 136.785156 91.152344 136.914062 87.304688 C 123.894531 87.304688 110.871094 87.304688 97.851562 87.304688 C 96.160156 87.304688 94.464844 87.304688 92.773438 87.304688 Z M 92.773438 87.304688 "/>
<path style=" stroke:none;fill-rule:evenodd;fill:rgb(36.078431%,41.176471%,51.764706%);fill-opacity:1;" d="M 154.492188 87.304688 C 154.492188 90.039062 154.492188 92.773438 154.492188 95.507812 C 154.996094 95.414062 155.386719 95.546875 155.664062 95.898438 C 154.355469 95.835938 153.054688 95.898438 151.757812 96.09375 C 149.804688 97.265625 147.851562 98.4375 145.898438 99.609375 C 144.800781 99.96875 143.953125 99.644531 143.359375 98.632812 C 143.164062 94.859375 143.097656 91.082031 143.164062 87.304688 C 146.941406 87.304688 150.714844 87.304688 154.492188 87.304688 Z M 154.492188 87.304688 "/>
<path style=" stroke:none;fill-rule:evenodd;fill:rgb(47.45098%,50.980392%,60%);fill-opacity:1;" d="M 154.492188 87.304688 C 158.269531 87.304688 162.042969 87.304688 165.820312 87.304688 C 165.886719 90.953125 165.820312 94.597656 165.625 98.242188 C 165.023438 99.488281 164.046875 99.945312 162.695312 99.609375 C 160.574219 97.945312 158.230469 96.707031 155.664062 95.898438 C 155.386719 95.546875 154.996094 95.414062 154.492188 95.507812 C 154.492188 92.773438 154.492188 90.039062 154.492188 87.304688 Z M 154.492188 87.304688 "/>
<path style=" stroke:none;fill-rule:evenodd;fill:rgb(98.823529%,62.352941%,66.27451%);fill-opacity:1;" d="M 101.367188 117.773438 C 130.925781 117.707031 160.480469 117.773438 190.039062 117.96875 C 194.175781 120.070312 195.019531 123.128906 192.578125 127.148438 C 191.613281 127.988281 190.507812 128.574219 189.257812 128.90625 C 156.25 129.230469 123.308594 129.167969 90.429688 128.710938 C 98.242188 128.777344 106.054688 128.710938 113.867188 128.515625 C 108.78125 125.964844 104.613281 122.382812 101.367188 117.773438 Z M 101.367188 117.773438 "/>
<path style=" stroke:none;fill-rule:evenodd;fill:rgb(68.627451%,62.745098%,75.294118%);fill-opacity:1;" d="M 58.398438 19.726562 C 58.789062 57.421875 58.917969 95.179688 58.789062 133.007812 C 45.246094 133.007812 31.707031 133.007812 18.164062 133.007812 C 18.164062 132.878906 18.164062 132.746094 18.164062 132.617188 C 31.574219 132.617188 44.988281 132.617188 58.398438 132.617188 C 58.398438 94.988281 58.398438 57.355469 58.398438 19.726562 Z M 58.398438 19.726562 "/>
<path style=" stroke:none;fill-rule:evenodd;fill:rgb(57.254902%,72.941176%,90.196078%);fill-opacity:1;" d="M 113.867188 134.960938 C 108.726562 137.625 104.558594 141.402344 101.367188 146.289062 C 91.492188 144.429688 83.746094 147.554688 78.125 155.664062 C 74.152344 164.972656 76.042969 172.851562 83.789062 179.296875 C 89.226562 182.398438 95.085938 183.503906 101.367188 182.617188 C 104.792969 187.390625 109.089844 191.164062 114.257812 193.945312 C 106.054688 194.011719 97.851562 193.945312 89.648438 193.75 C 74.039062 190.054688 65.703125 180.226562 64.648438 164.257812 C 64.921875 153.355469 69.609375 144.957031 78.710938 139.0625 C 82.027344 137.207031 85.542969 135.90625 89.257812 135.15625 C 97.460938 134.960938 105.664062 134.894531 113.867188 134.960938 Z M 113.867188 134.960938 "/>
<path style=" stroke:none;fill-rule:evenodd;fill:rgb(74.117647%,83.529412%,94.117647%);fill-opacity:1;" d="M 113.867188 134.960938 C 139.128906 134.894531 164.386719 134.960938 189.648438 135.15625 C 193.464844 136.605469 194.703125 139.273438 193.359375 143.164062 C 192.4375 144.765625 191.070312 145.742188 189.257812 146.09375 C 159.960938 146.289062 130.664062 146.355469 101.367188 146.289062 C 104.558594 141.402344 108.726562 137.625 113.867188 134.960938 Z M 113.867188 134.960938 "/>
<path style=" stroke:none;fill-rule:evenodd;fill:rgb(36.078431%,41.568627%,51.764706%);fill-opacity:1;" d="M 18.164062 138.867188 C 18.164062 147.070312 18.164062 155.273438 18.164062 163.476562 C 13.996094 163.476562 9.832031 163.476562 5.664062 163.476562 C 5.664062 155.273438 5.664062 147.070312 5.664062 138.867188 C 9.832031 138.867188 13.996094 138.867188 18.164062 138.867188 Z M 18.164062 138.867188 "/>
<path style=" stroke:none;fill-rule:evenodd;fill:rgb(47.843137%,51.372549%,60.392157%);fill-opacity:1;" d="M 18.164062 138.867188 C 31.574219 138.867188 44.988281 138.867188 58.398438 138.867188 C 58.398438 147.070312 58.398438 155.273438 58.398438 163.476562 C 44.988281 163.476562 31.574219 163.476562 18.164062 163.476562 C 18.164062 155.273438 18.164062 147.070312 18.164062 138.867188 Z M 18.164062 138.867188 "/>
<path style=" stroke:none;fill-rule:evenodd;fill:rgb(85.882353%,87.45098%,87.843137%);fill-opacity:1;" d="M 97.851562 152.148438 C 95.277344 160.214844 95.277344 168.289062 97.851562 176.367188 C 114.976562 176.238281 132.03125 176.367188 149.023438 176.757812 C 129.472656 176.945312 109.941406 176.75 90.429688 176.171875 C 84.015625 173.394531 81.214844 168.511719 82.03125 161.523438 C 84.792969 154.25 90.066406 151.125 97.851562 152.148438 Z M 97.851562 152.148438 "/>
<path style=" stroke:none;fill-rule:evenodd;fill:rgb(93.72549%,93.72549%,93.72549%);fill-opacity:1;" d="M 97.851562 152.148438 C 125.976562 152.148438 154.101562 152.148438 182.226562 152.148438 C 182.226562 160.222656 182.226562 168.292969 182.226562 176.367188 C 174.738281 176.238281 167.316406 176.367188 159.960938 176.757812 C 158.414062 177.003906 157.5 177.914062 157.226562 179.492188 C 155.273438 179.492188 153.320312 179.492188 151.367188 179.492188 C 151.152344 178.101562 150.371094 177.191406 149.023438 176.757812 C 132.03125 176.367188 114.976562 176.238281 97.851562 176.367188 C 95.277344 168.289062 95.277344 160.214844 97.851562 152.148438 Z M 97.851562 152.148438 "/>
<path style=" stroke:none;fill-rule:evenodd;fill:rgb(32.156863%,34.509804%,40.784314%);fill-opacity:1;" d="M 58.398438 138.867188 C 58.789062 147.132812 58.917969 155.464844 58.789062 163.867188 C 41.015625 163.996094 23.304688 163.867188 5.664062 163.476562 C 9.832031 163.476562 13.996094 163.476562 18.164062 163.476562 C 31.574219 163.476562 44.988281 163.476562 58.398438 163.476562 C 58.398438 155.273438 58.398438 147.070312 58.398438 138.867188 Z M 58.398438 138.867188 "/>
<path style=" stroke:none;fill-rule:evenodd;fill:rgb(76.078431%,65.490196%,87.843137%);fill-opacity:1;" d="M 18.554688 169.726562 C 18.394531 174.179688 18.589844 178.605469 19.140625 183.007812 C 20.726562 187.628906 23.527344 191.273438 27.539062 193.945312 C 19.820312 195.171875 13.503906 192.828125 8.59375 186.914062 C 7.597656 185.179688 6.816406 183.359375 6.25 181.445312 C 5.71875 177.5625 5.523438 173.65625 5.664062 169.726562 C 9.960938 169.726562 14.257812 169.726562 18.554688 169.726562 Z M 18.554688 169.726562 "/>
<path style=" stroke:none;fill-rule:evenodd;fill:rgb(83.529412%,76.470588%,91.372549%);fill-opacity:1;" d="M 18.554688 169.726562 C 31.964844 169.726562 45.378906 169.726562 58.789062 169.726562 C 59.027344 174.078125 58.703125 178.375 57.8125 182.617188 C 55.4375 188.898438 50.945312 192.609375 44.335938 193.75 C 38.738281 193.945312 33.140625 194.011719 27.539062 193.945312 C 23.527344 191.273438 20.726562 187.628906 19.140625 183.007812 C 18.589844 178.605469 18.394531 174.179688 18.554688 169.726562 Z M 18.554688 169.726562 "/>
<path style=" stroke:none;fill-rule:evenodd;fill:rgb(74.117647%,74.117647%,74.117647%);fill-opacity:1;" d="M 182.226562 152.148438 C 182.617188 160.285156 182.746094 168.488281 182.617188 176.757812 C 175.066406 176.757812 167.511719 176.757812 159.960938 176.757812 C 167.316406 176.367188 174.738281 176.238281 182.226562 176.367188 C 182.226562 168.292969 182.226562 160.222656 182.226562 152.148438 Z M 182.226562 152.148438 "/>
<path style=" stroke:none;fill-rule:evenodd;fill:rgb(74.117647%,83.529412%,94.117647%);fill-opacity:1;" d="M 151.367188 179.492188 C 153.320312 179.492188 155.273438 179.492188 157.226562 179.492188 C 157.433594 180.746094 158.082031 181.722656 159.179688 182.421875 C 169.75 182.433594 180.296875 182.691406 190.820312 183.203125 C 194.082031 185.3125 194.796875 188.113281 192.96875 191.601562 C 192.367188 192.335938 191.648438 192.921875 190.820312 193.359375 C 165.316406 193.941406 139.796875 194.136719 114.257812 193.945312 C 109.089844 191.164062 104.792969 187.390625 101.367188 182.617188 C 117.382812 182.683594 133.398438 182.617188 149.414062 182.421875 C 150.699219 181.871094 151.351562 180.894531 151.367188 179.492188 Z M 151.367188 179.492188 "/>
</g>
</svg>
