<?xml version="1.0" encoding="UTF-8"?>
<svg xmlns="http://www.w3.org/2000/svg" xmlns:xlink="http://www.w3.org/1999/xlink" width="200px" height="200px" viewBox="0 0 200 200" version="1.1">
<defs>
<filter id="alpha" filterUnits="objectBoundingBox" x="0%" y="0%" width="100%" height="100%">
  <feColorMatrix type="matrix" in="SourceGraphic" values="0 0 0 0 1 0 0 0 0 1 0 0 0 0 1 0 0 0 1 0"/>
</filter>
<mask id="mask0">
  <g filter="url(#alpha)">
<rect x="0" y="0" width="200" height="200" style="fill:rgb(0%,0%,0%);fill-opacity:0.988235;stroke:none;"/>
  </g>
</mask>
<clipPath id="clip1">
  <rect x="0" y="0" width="200" height="200"/>
</clipPath>
<g id="surface5" clip-path="url(#clip1)">
<path style=" stroke:none;fill-rule:evenodd;fill:rgb(78.823529%,82.745098%,89.019608%);fill-opacity:1;" d="M 26.757812 -0.195312 C 28.320312 -0.195312 29.882812 -0.195312 31.445312 -0.195312 C 33 0.511719 34.105469 1.683594 34.765625 3.320312 C 34.960938 6.050781 35.027344 8.785156 34.960938 11.523438 C 35.027344 18.035156 34.960938 24.546875 34.765625 31.054688 C 33.8125 33.8125 31.859375 35.246094 28.90625 35.351562 C 26.132812 35.136719 24.308594 33.703125 23.4375 31.054688 C 23.242188 24.546875 23.175781 18.035156 23.242188 11.523438 C 23.175781 8.785156 23.242188 6.050781 23.4375 3.320312 C 24.097656 1.683594 25.203125 0.511719 26.757812 -0.195312 Z M 26.757812 -0.195312 "/>
</g>
<mask id="mask1">
  <g filter="url(#alpha)">
<rect x="0" y="0" width="200" height="200" style="fill:rgb(0%,0%,0%);fill-opacity:0.988235;stroke:none;"/>
  </g>
</mask>
<clipPath id="clip2">
  <rect x="0" y="0" width="200" height="200"/>
</clipPath>
<g id="surface8" clip-path="url(#clip2)">
<path style=" stroke:none;fill-rule:evenodd;fill:rgb(78.823529%,82.745098%,89.019608%);fill-opacity:1;" d="M 50.585938 -0.195312 C 52.148438 -0.195312 53.710938 -0.195312 55.273438 -0.195312 C 56.828125 0.511719 57.933594 1.683594 58.59375 3.320312 C 58.789062 6.050781 58.855469 8.785156 58.789062 11.523438 C 58.855469 18.035156 58.789062 24.546875 58.59375 31.054688 C 57.640625 33.8125 55.6875 35.246094 52.734375 35.351562 C 49.960938 35.136719 48.136719 33.703125 47.265625 31.054688 C 47.070312 24.546875 47.003906 18.035156 47.070312 11.523438 C 47.003906 8.785156 47.070312 6.050781 47.265625 3.320312 C 47.925781 1.683594 49.03125 0.511719 50.585938 -0.195312 Z M 50.585938 -0.195312 "/>
</g>
<mask id="mask2">
  <g filter="url(#alpha)">
<rect x="0" y="0" width="200" height="200" style="fill:rgb(0%,0%,0%);fill-opacity:0.988235;stroke:none;"/>
  </g>
</mask>
<clipPath id="clip3">
  <rect x="0" y="0" width="200" height="200"/>
</clipPath>
<g id="surface11" clip-path="url(#clip3)">
<path style=" stroke:none;fill-rule:evenodd;fill:rgb(78.823529%,82.745098%,89.019608%);fill-opacity:1;" d="M 74.023438 -0.195312 C 74.804688 -0.195312 75.585938 -0.195312 76.367188 -0.195312 C 76.367188 11.523438 76.367188 23.242188 76.367188 34.960938 C 75.847656 34.960938 75.324219 34.960938 74.804688 34.960938 C 72.628906 34.542969 71.261719 33.242188 70.703125 31.054688 C 70.507812 24.546875 70.441406 18.035156 70.507812 11.523438 C 70.441406 8.785156 70.507812 6.050781 70.703125 3.320312 C 71.363281 1.683594 72.46875 0.511719 74.023438 -0.195312 Z M 74.023438 -0.195312 "/>
</g>
<mask id="mask3">
  <g filter="url(#alpha)">
<rect x="0" y="0" width="200" height="200" style="fill:rgb(0%,0%,0%);fill-opacity:0.988235;stroke:none;"/>
  </g>
</mask>
<clipPath id="clip4">
  <rect x="0" y="0" width="200" height="200"/>
</clipPath>
<g id="surface14" clip-path="url(#clip4)">
<path style=" stroke:none;fill-rule:evenodd;fill:rgb(67.45098%,70.588235%,79.607843%);fill-opacity:1;" d="M 97.851562 -0.195312 C 99.414062 -0.195312 100.976562 -0.195312 102.539062 -0.195312 C 104.09375 0.511719 105.199219 1.683594 105.859375 3.320312 C 106.054688 6.050781 106.121094 8.785156 106.054688 11.523438 C 106.121094 18.035156 106.054688 24.546875 105.859375 31.054688 C 104.90625 33.8125 102.953125 35.246094 100 35.351562 C 97.226562 35.136719 95.402344 33.703125 94.53125 31.054688 C 94.335938 24.546875 94.269531 18.035156 94.335938 11.523438 C 94.269531 8.785156 94.335938 6.050781 94.53125 3.320312 C 95.191406 1.683594 96.296875 0.511719 97.851562 -0.195312 Z M 97.851562 -0.195312 "/>
</g>
<mask id="mask4">
  <g filter="url(#alpha)">
<rect x="0" y="0" width="200" height="200" style="fill:rgb(0%,0%,0%);fill-opacity:0.988235;stroke:none;"/>
  </g>
</mask>
<clipPath id="clip5">
  <rect x="0" y="0" width="200" height="200"/>
</clipPath>
<g id="surface17" clip-path="url(#clip5)">
<path style=" stroke:none;fill-rule:evenodd;fill:rgb(67.45098%,70.588235%,79.607843%);fill-opacity:1;" d="M 121.289062 -0.195312 C 122.851562 -0.195312 124.414062 -0.195312 125.976562 -0.195312 C 127.53125 0.511719 128.636719 1.683594 129.296875 3.320312 C 129.492188 6.050781 129.558594 8.785156 129.492188 11.523438 C 129.558594 18.035156 129.492188 24.546875 129.296875 31.054688 C 128.34375 33.8125 126.390625 35.246094 123.4375 35.351562 C 120.664062 35.136719 118.839844 33.703125 117.96875 31.054688 C 117.773438 24.546875 117.707031 18.035156 117.773438 11.523438 C 117.707031 8.785156 117.773438 6.050781 117.96875 3.320312 C 118.628906 1.683594 119.734375 0.511719 121.289062 -0.195312 Z M 121.289062 -0.195312 "/>
</g>
<mask id="mask5">
  <g filter="url(#alpha)">
<rect x="0" y="0" width="200" height="200" style="fill:rgb(0%,0%,0%);fill-opacity:0.980392;stroke:none;"/>
  </g>
</mask>
<clipPath id="clip6">
  <rect x="0" y="0" width="200" height="200"/>
</clipPath>
<g id="surface20" clip-path="url(#clip6)">
<path style=" stroke:none;fill-rule:evenodd;fill:rgb(30.196078%,34.901961%,40.392157%);fill-opacity:1;" d="M 190.820312 12.695312 C 185.089844 22.851562 179.363281 33.007812 173.632812 43.164062 C 173.503906 43.164062 173.371094 43.164062 173.242188 43.164062 C 168.21875 40.195312 163.140625 37.332031 158.007812 34.570312 C 161.382812 28.34375 164.964844 22.222656 168.75 16.210938 C 175.304688 9.824219 182.664062 8.652344 190.820312 12.695312 Z M 190.820312 12.695312 "/>
</g>
<mask id="mask6">
  <g filter="url(#alpha)">
<rect x="0" y="0" width="200" height="200" style="fill:rgb(0%,0%,0%);fill-opacity:0.996078;stroke:none;"/>
  </g>
</mask>
<clipPath id="clip7">
  <rect x="0" y="0" width="200" height="200"/>
</clipPath>
<g id="surface23" clip-path="url(#clip7)">
<path style=" stroke:none;fill-rule:evenodd;fill:rgb(30.196078%,35.294118%,40.784314%);fill-opacity:1;" d="M 23.242188 11.523438 C 23.175781 18.035156 23.242188 24.546875 23.4375 31.054688 C 24.308594 33.703125 26.132812 35.136719 28.90625 35.351562 C 31.859375 35.246094 33.8125 33.8125 34.765625 31.054688 C 34.960938 24.546875 35.027344 18.035156 34.960938 11.523438 C 38.996094 11.523438 43.035156 11.523438 47.070312 11.523438 C 47.003906 18.035156 47.070312 24.546875 47.265625 31.054688 C 48.136719 33.703125 49.960938 35.136719 52.734375 35.351562 C 55.6875 35.246094 57.640625 33.8125 58.59375 31.054688 C 58.789062 24.546875 58.855469 18.035156 58.789062 11.523438 C 62.695312 11.523438 66.601562 11.523438 70.507812 11.523438 C 70.441406 18.035156 70.507812 24.546875 70.703125 31.054688 C 71.261719 33.242188 72.628906 34.542969 74.804688 34.960938 C 75.222656 35.324219 75.742188 35.457031 76.367188 35.351562 C 76.367188 39.257812 76.367188 43.164062 76.367188 47.070312 C 50.847656 47.070312 25.324219 47.070312 -0.195312 47.070312 C -0.195312 39.910156 -0.195312 32.746094 -0.195312 25.585938 C 3.648438 14.539062 11.460938 9.851562 23.242188 11.523438 Z M 23.242188 11.523438 "/>
</g>
<mask id="mask7">
  <g filter="url(#alpha)">
<rect x="0" y="0" width="200" height="200" style="fill:rgb(0%,0%,0%);fill-opacity:0.964706;stroke:none;"/>
  </g>
</mask>
<clipPath id="clip8">
  <rect x="0" y="0" width="200" height="200"/>
</clipPath>
<g id="surface26" clip-path="url(#clip8)">
<path style=" stroke:none;fill-rule:evenodd;fill:rgb(18.823529%,27.45098%,32.54902%);fill-opacity:1;" d="M 190.820312 12.695312 C 195.578125 15.238281 198.570312 19.144531 199.804688 24.414062 C 199.804688 26.757812 199.804688 29.101562 199.804688 31.445312 C 196.742188 38.542969 193.097656 45.378906 188.867188 51.953125 C 194.695312 54.695312 198.339844 59.1875 199.804688 65.429688 C 199.804688 67.382812 199.804688 69.335938 199.804688 71.289062 C 199.203125 74.0625 198.09375 76.667969 196.484375 79.101562 C 190.6875 84.894531 185.480469 91.144531 180.859375 97.851562 C 175.1875 107.773438 171.933594 118.453125 171.09375 129.882812 C 168.484375 132.976562 165.425781 133.5625 161.914062 131.640625 C 160.503906 130.25 159.722656 128.554688 159.570312 126.5625 C 159.972656 124.171875 160.234375 121.761719 160.351562 119.335938 C 160.613281 119.335938 160.742188 119.207031 160.742188 118.945312 C 165.503906 107.78125 170.191406 96.585938 174.804688 85.351562 C 175.132812 85.21875 175.261719 84.957031 175.195312 84.570312 C 178.195312 80.9375 181.386719 77.421875 184.765625 74.023438 C 185.828125 72.828125 186.742188 71.527344 187.5 70.117188 C 188.015625 66.847656 186.777344 64.503906 183.789062 63.085938 C 184.4375 60.679688 185.285156 58.335938 186.328125 56.054688 C 187.390625 54.753906 188.042969 53.324219 188.28125 51.757812 C 183.40625 48.832031 178.523438 45.96875 173.632812 43.164062 C 179.363281 33.007812 185.089844 22.851562 190.820312 12.695312 Z M 190.820312 12.695312 "/>
</g>
</defs>
<g id="surface1">
<use xlink:href="#surface5" mask="url(#mask0)"/>
<use xlink:href="#surface8" mask="url(#mask1)"/>
<use xlink:href="#surface11" mask="url(#mask2)"/>
<use xlink:href="#surface14" mask="url(#mask3)"/>
<use xlink:href="#surface17" mask="url(#mask4)"/>
<path style=" stroke:none;fill-rule:evenodd;fill:rgb(67.843137%,70.980392%,79.607843%);fill-opacity:1;" d="M 76.367188 -0.195312 C 77.148438 -0.195312 77.929688 -0.195312 78.710938 -0.195312 C 80.265625 0.511719 81.371094 1.683594 82.03125 3.320312 C 82.226562 6.050781 82.292969 8.785156 82.226562 11.523438 C 82.292969 18.035156 82.226562 24.546875 82.03125 31.054688 C 81.214844 33.890625 79.328125 35.320312 76.367188 35.351562 C 75.742188 35.457031 75.222656 35.324219 74.804688 34.960938 C 75.324219 34.960938 75.847656 34.960938 76.367188 34.960938 C 76.367188 23.242188 76.367188 11.523438 76.367188 -0.195312 Z M 76.367188 -0.195312 "/>
<use xlink:href="#surface20" mask="url(#mask5)"/>
<use xlink:href="#surface23" mask="url(#mask6)"/>
<path style=" stroke:none;fill-rule:evenodd;fill:rgb(18.823529%,27.45098%,32.54902%);fill-opacity:1;" d="M 82.226562 11.523438 C 86.261719 11.523438 90.300781 11.523438 94.335938 11.523438 C 94.269531 18.035156 94.335938 24.546875 94.53125 31.054688 C 95.402344 33.703125 97.226562 35.136719 100 35.351562 C 102.953125 35.246094 104.90625 33.8125 105.859375 31.054688 C 106.054688 24.546875 106.121094 18.035156 106.054688 11.523438 C 109.960938 11.523438 113.867188 11.523438 117.773438 11.523438 C 117.707031 18.035156 117.773438 24.546875 117.96875 31.054688 C 118.839844 33.703125 120.664062 35.136719 123.4375 35.351562 C 126.390625 35.246094 128.34375 33.8125 129.296875 31.054688 C 129.492188 24.546875 129.558594 18.035156 129.492188 11.523438 C 137.601562 10.039062 144.304688 12.382812 149.609375 18.554688 C 151.074219 20.703125 152.117188 23.046875 152.734375 25.585938 C 152.929688 30.921875 152.996094 36.261719 152.929688 41.601562 C 152.015625 43.683594 150.714844 45.507812 149.023438 47.070312 C 124.804688 47.070312 100.585938 47.070312 76.367188 47.070312 C 76.367188 43.164062 76.367188 39.257812 76.367188 35.351562 C 79.328125 35.320312 81.214844 33.890625 82.03125 31.054688 C 82.226562 24.546875 82.292969 18.035156 82.226562 11.523438 Z M 82.226562 11.523438 "/>
<path style=" stroke:none;fill-rule:evenodd;fill:rgb(90.980392%,20%,42.352941%);fill-opacity:1;" d="M 158.007812 34.570312 C 163.140625 37.332031 168.21875 40.195312 173.242188 43.164062 C 157.273438 71.375 141.128906 99.5 124.804688 127.539062 C 124.625 127.851562 124.367188 127.980469 124.023438 127.929688 C 116.257812 124.664062 108.96875 125.445312 102.148438 130.273438 C 103.871094 113.039062 109.925781 97.542969 120.3125 83.789062 C 129.980469 71.609375 139.550781 59.367188 149.023438 47.070312 C 150.714844 45.507812 152.015625 43.683594 152.929688 41.601562 C 153.953125 40.867188 154.796875 39.957031 155.46875 38.867188 C 156.128906 37.28125 156.976562 35.847656 158.007812 34.570312 Z M 158.007812 34.570312 "/>
<path style=" stroke:none;fill-rule:evenodd;fill:rgb(69.411765%,18.039216%,39.607843%);fill-opacity:1;" d="M 173.242188 43.164062 C 173.371094 43.164062 173.503906 43.164062 173.632812 43.164062 C 178.523438 45.96875 183.40625 48.832031 188.28125 51.757812 C 188.042969 53.324219 187.390625 54.753906 186.328125 56.054688 C 185.285156 58.335938 184.4375 60.679688 183.789062 63.085938 C 180.78125 70.15625 177.914062 77.316406 175.195312 84.570312 C 174.867188 84.703125 174.738281 84.964844 174.804688 85.351562 C 170.191406 96.585938 165.503906 107.78125 160.742188 118.945312 C 160.480469 118.945312 160.351562 119.074219 160.351562 119.335938 C 158.183594 123.195312 155.710938 126.839844 152.929688 130.273438 C 150.027344 133.632812 147.03125 136.953125 143.945312 140.234375 C 140.71875 143.136719 137.335938 145.804688 133.789062 148.242188 C 134.621094 141.039062 132.410156 134.984375 127.148438 130.078125 C 126.148438 129.382812 125.105469 128.796875 124.023438 128.320312 C 124.023438 128.191406 124.023438 128.058594 124.023438 127.929688 C 124.367188 127.980469 124.625 127.851562 124.804688 127.539062 C 141.128906 99.5 157.273438 71.375 173.242188 43.164062 Z M 173.242188 43.164062 "/>
<path style=" stroke:none;fill-rule:evenodd;fill:rgb(99.607843%,78.823529%,25.882353%);fill-opacity:1;" d="M -0.195312 47.070312 C 25.324219 47.070312 50.847656 47.070312 76.367188 47.070312 C 76.367188 82.226562 76.367188 117.382812 76.367188 152.539062 C 60.089844 152.472656 43.8125 152.539062 27.539062 152.734375 C 23.117188 154.808594 22.140625 157.996094 24.609375 162.304688 C 25.492188 163.058594 26.46875 163.644531 27.539062 164.0625 C 43.8125 164.257812 60.089844 164.324219 76.367188 164.257812 C 76.367188 176.105469 76.367188 187.957031 76.367188 199.804688 C 55.402344 199.804688 34.441406 199.804688 13.476562 199.804688 C 6.40625 197.554688 1.851562 192.867188 -0.195312 185.742188 C -0.195312 139.519531 -0.195312 93.292969 -0.195312 47.070312 Z M -0.195312 47.070312 "/>
<path style=" stroke:none;fill-rule:evenodd;fill:rgb(99.607843%,68.235294%,24.313725%);fill-opacity:1;" d="M 76.367188 47.070312 C 100.585938 47.070312 124.804688 47.070312 149.023438 47.070312 C 139.550781 59.367188 129.980469 71.609375 120.3125 83.789062 C 109.925781 97.542969 103.871094 113.039062 102.148438 130.273438 C 101.410156 139.769531 100.691406 149.277344 100 158.789062 C 98.4375 161.394531 96.875 163.996094 95.3125 166.601562 C 93.511719 170.164062 94.226562 173.027344 97.460938 175.195312 C 99.734375 176.3125 101.949219 176.117188 104.101562 174.609375 C 106.347656 170.898438 108.691406 167.25 111.132812 163.671875 C 118.859375 158.734375 126.414062 153.59375 133.789062 148.242188 C 137.335938 145.804688 140.71875 143.136719 143.945312 140.234375 C 147.03125 136.953125 150.027344 133.632812 152.929688 130.273438 C 152.996094 148.765625 152.929688 167.253906 152.734375 185.742188 C 150.8125 192.9375 146.320312 197.625 139.257812 199.804688 C 118.292969 199.804688 97.332031 199.804688 76.367188 199.804688 C 76.367188 187.957031 76.367188 176.105469 76.367188 164.257812 C 81.011719 163.703125 82.898438 161.101562 82.03125 156.445312 C 81.046875 153.835938 79.15625 152.535156 76.367188 152.539062 C 76.367188 117.382812 76.367188 82.226562 76.367188 47.070312 Z M 76.367188 47.070312 "/>
<use xlink:href="#surface26" mask="url(#mask7)"/>
<path style=" stroke:none;fill-rule:evenodd;fill:rgb(86.666667%,52.54902%,29.803922%);fill-opacity:1;" d="M 27.539062 82.226562 C 36.523438 82.160156 45.507812 82.226562 54.492188 82.421875 C 59.003906 84.605469 59.917969 87.796875 57.226562 91.992188 C 56.449219 92.773438 55.535156 93.359375 54.492188 93.75 C 45.507812 94.011719 36.523438 94.011719 27.539062 93.75 C 23.519531 91.898438 22.410156 88.96875 24.21875 84.960938 C 25.164062 83.820312 26.269531 82.90625 27.539062 82.226562 Z M 27.539062 82.226562 "/>
<path style=" stroke:none;fill-rule:evenodd;fill:rgb(86.666667%,52.54902%,29.803922%);fill-opacity:1;" d="M 27.539062 117.382812 C 40.429688 117.316406 53.320312 117.382812 66.210938 117.578125 C 70.722656 119.761719 71.636719 122.953125 68.945312 127.148438 C 68.167969 127.929688 67.253906 128.515625 66.210938 128.90625 C 53.320312 129.167969 40.429688 129.167969 27.539062 128.90625 C 23.519531 127.054688 22.410156 124.125 24.21875 120.117188 C 25.164062 118.976562 26.269531 118.0625 27.539062 117.382812 Z M 27.539062 117.382812 "/>
<path style=" stroke:none;fill-rule:evenodd;fill:rgb(79.215686%,82.745098%,88.627451%);fill-opacity:1;" d="M 124.023438 127.929688 C 124.023438 128.058594 124.023438 128.191406 124.023438 128.320312 C 115.167969 143.945312 106.316406 159.570312 97.460938 175.195312 C 94.226562 173.027344 93.511719 170.164062 95.3125 166.601562 C 96.875 163.996094 98.4375 161.394531 100 158.789062 C 100.691406 149.277344 101.410156 139.769531 102.148438 130.273438 C 108.96875 125.445312 116.257812 124.664062 124.023438 127.929688 Z M 124.023438 127.929688 "/>
<path style=" stroke:none;fill-rule:evenodd;fill:rgb(67.843137%,70.980392%,79.607843%);fill-opacity:1;" d="M 124.023438 128.320312 C 125.105469 128.796875 126.148438 129.382812 127.148438 130.078125 C 132.410156 134.984375 134.621094 141.039062 133.789062 148.242188 C 126.414062 153.59375 118.859375 158.734375 111.132812 163.671875 C 108.691406 167.25 106.347656 170.898438 104.101562 174.609375 C 101.949219 176.117188 99.734375 176.3125 97.460938 175.195312 C 106.316406 159.570312 115.167969 143.945312 124.023438 128.320312 Z M 124.023438 128.320312 "/>
<path style=" stroke:none;fill-rule:evenodd;fill:rgb(86.666667%,52.54902%,29.803922%);fill-opacity:1;" d="M 76.367188 152.539062 C 76.367188 156.445312 76.367188 160.351562 76.367188 164.257812 C 60.089844 164.324219 43.8125 164.257812 27.539062 164.0625 C 26.46875 163.644531 25.492188 163.058594 24.609375 162.304688 C 22.140625 157.996094 23.117188 154.808594 27.539062 152.734375 C 43.8125 152.539062 60.089844 152.472656 76.367188 152.539062 Z M 76.367188 152.539062 "/>
<path style=" stroke:none;fill-rule:evenodd;fill:rgb(82.745098%,41.176471%,21.176471%);fill-opacity:1;" d="M 76.367188 152.539062 C 79.15625 152.535156 81.046875 153.835938 82.03125 156.445312 C 82.898438 161.101562 81.011719 163.703125 76.367188 164.257812 C 76.367188 160.351562 76.367188 156.445312 76.367188 152.539062 Z M 76.367188 152.539062 "/>
</g>
</svg>
