<?xml version="1.0" encoding="UTF-8"?>
<svg xmlns="http://www.w3.org/2000/svg" xmlns:xlink="http://www.w3.org/1999/xlink" width="200px" height="200px" viewBox="0 0 200 200" version="1.1">
<defs>
<filter id="alpha" filterUnits="objectBoundingBox" x="0%" y="0%" width="100%" height="100%">
  <feColorMatrix type="matrix" in="SourceGraphic" values="0 0 0 0 1 0 0 0 0 1 0 0 0 0 1 0 0 0 1 0"/>
</filter>
<mask id="mask0">
  <g filter="url(#alpha)">
<rect x="0" y="0" width="200" height="200" style="fill:rgb(0%,0%,0%);fill-opacity:0.992157;stroke:none;"/>
  </g>
</mask>
<clipPath id="clip1">
  <rect x="0" y="0" width="200" height="200"/>
</clipPath>
<g id="surface5" clip-path="url(#clip1)">
<path style=" stroke:none;fill-rule:evenodd;fill:rgb(97.254902%,70.196078%,0.392157%);fill-opacity:1;" d="M 143.554688 52.148438 C 142.195312 52.675781 140.957031 53.457031 139.84375 54.492188 C 139.5 55.027344 139.304688 55.613281 139.257812 56.25 C 139.898438 57.839844 140.222656 59.46875 140.234375 61.132812 C 139.003906 63.148438 137.308594 64.582031 135.15625 65.429688 C 133.710938 64.839844 132.210938 64.449219 130.664062 64.257812 C 130.953125 62.84375 131.085938 61.410156 131.054688 59.960938 C 131.222656 56.921875 131.027344 53.925781 130.46875 50.976562 C 130.011719 50.433594 129.425781 50.105469 128.710938 50 C 127.230469 49.9375 125.800781 49.675781 124.414062 49.21875 C 122.910156 47.3125 122.195312 45.164062 122.265625 42.773438 C 123.046875 41.730469 123.828125 40.691406 124.609375 39.648438 C 125 38.199219 124.738281 36.898438 123.828125 35.742188 C 122.316406 34.101562 120.691406 32.605469 118.945312 31.25 C 117.902344 30.988281 116.863281 30.988281 115.820312 31.25 C 113.960938 33.945312 111.617188 34.46875 108.789062 32.8125 C 107.972656 32.503906 107.257812 32.046875 106.640625 31.445312 C 106.175781 29.929688 105.914062 28.367188 105.859375 26.757812 C 105.675781 26.199219 105.351562 25.742188 104.882812 25.390625 C 101.488281 24.621094 98.101562 24.621094 94.726562 25.390625 C 94.257812 25.742188 93.929688 26.199219 93.75 26.757812 C 93.695312 28.367188 93.433594 29.929688 92.96875 31.445312 C 90.808594 33.285156 88.402344 33.871094 85.742188 33.203125 C 85.089844 32.550781 84.441406 31.902344 83.789062 31.25 C 82.746094 30.988281 81.707031 30.988281 80.664062 31.25 C 78.789062 32.734375 77.03125 34.363281 75.390625 36.132812 C 74.820312 37.253906 74.691406 38.425781 75 39.648438 C 75.78125 40.691406 76.5625 41.730469 77.34375 42.773438 C 77.367188 45.144531 76.648438 47.292969 75.195312 49.21875 C 73.679688 49.683594 72.117188 49.945312 70.507812 50 C 69.949219 50.179688 69.492188 50.507812 69.140625 50.976562 C 68.582031 53.925781 68.386719 56.921875 68.554688 59.960938 C 68.523438 61.410156 68.65625 62.84375 68.945312 64.257812 C 67.375 64.359375 65.878906 64.75 64.453125 65.429688 C 62.300781 64.582031 60.605469 63.148438 59.375 61.132812 C 59.386719 59.46875 59.710938 57.839844 60.351562 56.25 C 60.304688 55.613281 60.109375 55.027344 59.765625 54.492188 C 58.578125 53.601562 57.339844 52.820312 56.054688 52.148438 C 58.21875 34.6875 67.332031 22.382812 83.398438 15.234375 C 100.367188 9.292969 115.734375 12.027344 129.492188 23.4375 C 137.773438 31.210938 142.460938 40.78125 143.554688 52.148438 Z M 143.554688 52.148438 "/>
</g>
<mask id="mask1">
  <g filter="url(#alpha)">
<rect x="0" y="0" width="200" height="200" style="fill:rgb(0%,0%,0%);fill-opacity:0.988235;stroke:none;"/>
  </g>
</mask>
<clipPath id="clip2">
  <rect x="0" y="0" width="200" height="200"/>
</clipPath>
<g id="surface8" clip-path="url(#clip2)">
<path style=" stroke:none;fill-rule:evenodd;fill:rgb(78.431373%,3.921569%,30.980392%);fill-opacity:1;" d="M 56.054688 52.148438 C 57.339844 52.820312 58.578125 53.601562 59.765625 54.492188 C 60.109375 55.027344 60.304688 55.613281 60.351562 56.25 C 59.710938 57.839844 59.386719 59.46875 59.375 61.132812 C 60.605469 63.148438 62.300781 64.582031 64.453125 65.429688 C 65.878906 64.75 67.375 64.359375 68.945312 64.257812 C 69.660156 64.550781 70.3125 64.941406 70.898438 65.429688 C 71.910156 67.746094 72.886719 70.089844 73.828125 72.460938 C 74.019531 73.257812 73.953125 74.039062 73.632812 74.804688 C 72.25 75.789062 70.820312 76.699219 69.335938 77.539062 C 68.632812 78.726562 68.371094 80.027344 68.554688 81.445312 C 68.46875 82.574219 68.726562 83.617188 69.335938 84.570312 C 70.769531 85.375 72.136719 86.285156 73.4375 87.304688 C 73.695312 88.628906 73.628906 89.929688 73.242188 91.210938 C 72.683594 93.601562 71.644531 95.75 70.117188 97.65625 C 67.859375 97.808594 65.648438 97.679688 63.476562 97.265625 C 61.5 98.390625 60.199219 100.019531 59.570312 102.148438 C 60.265625 103.914062 60.460938 105.734375 60.15625 107.617188 C 57.5 109.496094 54.570312 110.800781 51.367188 111.523438 C 50.347656 111.5 49.5 111.109375 48.828125 110.351562 C 47.160156 106.105469 44.230469 104.996094 40.039062 107.03125 C 39.402344 108.105469 38.816406 109.214844 38.28125 110.351562 C 37.246094 111.402344 36.007812 111.730469 34.570312 111.328125 C 31.828125 110.460938 29.289062 109.222656 26.953125 107.617188 C 26.648438 105.734375 26.84375 103.914062 27.539062 102.148438 C 26.910156 100.019531 25.609375 98.390625 23.632812 97.265625 C 21.460938 97.679688 19.25 97.808594 16.992188 97.65625 C 16.164062 96.980469 15.578125 96.132812 15.234375 95.117188 C 14.660156 93.523438 14.007812 91.960938 13.28125 90.429688 C 12.851562 88.867188 13.179688 87.5 14.257812 86.328125 C 18.527344 84.585938 19.636719 81.65625 17.578125 77.539062 C 16.503906 76.902344 15.394531 76.316406 14.257812 75.78125 C 13.179688 74.609375 12.851562 73.242188 13.28125 71.679688 C 14.191406 69.597656 15.105469 67.511719 16.015625 65.429688 C 16.339844 65.105469 16.667969 64.777344 16.992188 64.453125 C 18.875 64.148438 20.695312 64.34375 22.460938 65.039062 C 24.589844 64.410156 26.21875 63.109375 27.34375 61.132812 C 26.929688 58.960938 26.800781 56.75 26.953125 54.492188 C 27.277344 54.167969 27.605469 53.839844 27.929688 53.515625 C 30.011719 52.605469 32.097656 51.691406 34.179688 50.78125 C 35.402344 50.472656 36.574219 50.601562 37.695312 51.171875 C 38.621094 52.371094 39.398438 53.671875 40.039062 55.078125 C 44.230469 57.113281 47.160156 56.003906 48.828125 51.757812 C 50 50.675781 51.367188 50.351562 52.929688 50.78125 C 53.9375 51.351562 54.976562 51.804688 56.054688 52.148438 Z M 43.164062 68.554688 C 52.234375 69.617188 56.335938 74.695312 55.46875 83.789062 C 53.207031 90.945312 48.324219 94.007812 40.820312 92.96875 C 33.664062 90.707031 30.601562 85.824219 31.640625 78.320312 C 33.300781 72.449219 37.144531 69.195312 43.164062 68.554688 Z M 43.164062 68.554688 "/>
</g>
<mask id="mask2">
  <g filter="url(#alpha)">
<rect x="0" y="0" width="200" height="200" style="fill:rgb(0%,0%,0%);fill-opacity:0.984314;stroke:none;"/>
  </g>
</mask>
<clipPath id="clip3">
  <rect x="0" y="0" width="200" height="200"/>
</clipPath>
<g id="surface11" clip-path="url(#clip3)">
<path style=" stroke:none;fill-rule:evenodd;fill:rgb(0.392157%,62.745098%,78.039216%);fill-opacity:1;" d="M 126.367188 91.210938 C 125.15625 89.351562 125.414062 87.726562 127.148438 86.328125 C 129.847656 85.78125 131.148438 84.15625 131.054688 81.445312 C 131.238281 80.027344 130.976562 78.726562 130.273438 77.539062 C 128.765625 76.722656 127.332031 75.808594 125.976562 74.804688 C 125.65625 74.039062 125.589844 73.257812 125.78125 72.460938 C 126.722656 70.089844 127.699219 67.746094 128.710938 65.429688 C 129.296875 64.941406 129.949219 64.550781 130.664062 64.257812 C 132.210938 64.449219 133.710938 64.839844 135.15625 65.429688 C 137.308594 64.582031 139.003906 63.148438 140.234375 61.132812 C 140.222656 59.46875 139.898438 57.839844 139.257812 56.25 C 139.304688 55.613281 139.5 55.027344 139.84375 54.492188 C 140.957031 53.457031 142.195312 52.675781 143.554688 52.148438 C 145.371094 51.085938 147.324219 50.628906 149.414062 50.78125 C 149.972656 50.960938 150.429688 51.289062 150.78125 51.757812 C 152.449219 56.003906 155.378906 57.113281 159.570312 55.078125 C 160.253906 53.710938 161.035156 52.410156 161.914062 51.171875 C 162.902344 50.617188 163.945312 50.484375 165.039062 50.78125 C 167.78125 51.648438 170.320312 52.886719 172.65625 54.492188 C 172.808594 56.75 172.679688 58.960938 172.265625 61.132812 C 173.390625 63.109375 175.019531 64.410156 177.148438 65.039062 C 178.914062 64.34375 180.734375 64.148438 182.617188 64.453125 C 182.941406 64.777344 183.269531 65.105469 183.59375 65.429688 C 185.152344 68.273438 186.0625 71.269531 186.328125 74.414062 C 186.148438 74.972656 185.820312 75.429688 185.351562 75.78125 C 181.105469 77.449219 179.996094 80.378906 182.03125 84.570312 C 183.105469 85.207031 184.214844 85.792969 185.351562 86.328125 C 186.402344 87.363281 186.730469 88.601562 186.328125 90.039062 C 185.460938 92.78125 184.222656 95.320312 182.617188 97.65625 C 180.734375 97.960938 178.914062 97.765625 177.148438 97.070312 C 175.019531 97.699219 173.390625 99 172.265625 100.976562 C 172.679688 103.148438 172.808594 105.359375 172.65625 107.617188 C 170.320312 109.222656 167.78125 110.460938 165.039062 111.328125 C 163.601562 111.730469 162.363281 111.402344 161.328125 110.351562 C 159.660156 106.105469 156.730469 104.996094 152.539062 107.03125 C 151.902344 108.105469 151.316406 109.214844 150.78125 110.351562 C 150.109375 111.109375 149.261719 111.5 148.242188 111.523438 C 145.039062 110.800781 142.109375 109.496094 139.453125 107.617188 C 139.148438 105.734375 139.34375 103.914062 140.039062 102.148438 C 139.410156 100.019531 138.109375 98.390625 136.132812 97.265625 C 133.960938 97.679688 131.75 97.808594 129.492188 97.65625 C 127.964844 95.75 126.925781 93.601562 126.367188 91.210938 Z M 155.664062 68.554688 C 164.734375 69.617188 168.835938 74.695312 167.96875 83.789062 C 165.707031 90.945312 160.824219 94.007812 153.320312 92.96875 C 146.164062 90.707031 143.101562 85.824219 144.140625 78.320312 C 145.800781 72.449219 149.644531 69.195312 155.664062 68.554688 Z M 155.664062 68.554688 "/>
</g>
<mask id="mask3">
  <g filter="url(#alpha)">
<rect x="0" y="0" width="200" height="200" style="fill:rgb(0%,0%,0%);fill-opacity:0.996078;stroke:none;"/>
  </g>
</mask>
<clipPath id="clip4">
  <rect x="0" y="0" width="200" height="200"/>
</clipPath>
<g id="surface14" clip-path="url(#clip4)">
<path style=" stroke:none;fill-rule:evenodd;fill:rgb(97.647059%,70.196078%,0%);fill-opacity:1;" d="M 70.898438 65.429688 C 74.277344 64.769531 76.359375 66.070312 77.148438 69.335938 C 76.675781 70.398438 75.957031 71.3125 75 72.070312 C 74.804688 73.105469 74.742188 74.144531 74.804688 75.195312 C 74.679688 76.554688 74.875 77.855469 75.390625 79.101562 C 76.886719 80.597656 78.386719 82.097656 79.882812 83.59375 C 82.296875 84.742188 84.25 84.222656 85.742188 82.03125 C 86.339844 81.671875 86.992188 81.476562 87.695312 81.445312 C 90.078125 81.789062 92.03125 82.828125 93.554688 84.570312 C 93.554688 84.699219 93.554688 84.832031 93.554688 84.960938 C 93.011719 89.558594 95.027344 91.382812 99.609375 90.429688 C 104.367188 91.53125 106.515625 89.710938 106.054688 84.960938 C 106.054688 84.832031 106.054688 84.699219 106.054688 84.570312 C 107.578125 82.828125 109.53125 81.789062 111.914062 81.445312 C 113.5625 81.71875 114.863281 82.566406 115.820312 83.984375 C 116.863281 84.246094 117.902344 84.246094 118.945312 83.984375 C 120.820312 82.5 122.578125 80.871094 124.21875 79.101562 C 124.734375 77.855469 124.929688 76.554688 124.804688 75.195312 C 124.867188 74.144531 124.804688 73.105469 124.609375 72.070312 C 123.941406 71.46875 123.355469 70.820312 122.851562 70.117188 C 122.929688 66.265625 124.882812 64.703125 128.710938 65.429688 C 127.699219 67.746094 126.722656 70.089844 125.78125 72.460938 C 125.589844 73.257812 125.65625 74.039062 125.976562 74.804688 C 125.914062 75.855469 125.976562 76.894531 126.171875 77.929688 C 127.875 79.066406 129.503906 80.238281 131.054688 81.445312 C 131.148438 84.15625 129.847656 85.78125 127.148438 86.328125 C 125.414062 87.726562 125.15625 89.351562 126.367188 91.210938 C 120.601562 94.417969 117.996094 99.367188 118.554688 106.054688 C 106.054688 106.054688 93.554688 106.054688 81.054688 106.054688 C 81.722656 99.316406 79.117188 94.367188 73.242188 91.210938 C 73.628906 89.929688 73.695312 88.628906 73.4375 87.304688 C 72.136719 86.285156 70.769531 85.375 69.335938 84.570312 C 68.726562 83.617188 68.46875 82.574219 68.554688 81.445312 C 68.890625 80.980469 69.28125 80.523438 69.726562 80.078125 C 72.78125 79.570312 74.082031 77.8125 73.632812 74.804688 C 73.953125 74.039062 74.019531 73.257812 73.828125 72.460938 C 72.886719 70.089844 71.910156 67.746094 70.898438 65.429688 Z M 70.898438 65.429688 "/>
</g>
<mask id="mask4">
  <g filter="url(#alpha)">
<rect x="0" y="0" width="200" height="200" style="fill:rgb(0%,0%,0%);fill-opacity:0.996078;stroke:none;"/>
  </g>
</mask>
<clipPath id="clip5">
  <rect x="0" y="0" width="200" height="200"/>
</clipPath>
<g id="surface17" clip-path="url(#clip5)">
<path style=" stroke:none;fill-rule:evenodd;fill:rgb(78.039216%,3.529412%,31.372549%);fill-opacity:1;" d="M 81.054688 106.054688 C 93.554688 106.054688 106.054688 106.054688 118.554688 106.054688 C 118.621094 111.003906 118.554688 115.953125 118.359375 120.898438 C 116.386719 124.570312 113.328125 125.871094 109.179688 124.804688 C 102.929688 124.804688 96.679688 124.804688 90.429688 124.804688 C 86.28125 125.871094 83.222656 124.570312 81.25 120.898438 C 81.054688 115.953125 80.988281 111.003906 81.054688 106.054688 Z M 81.054688 106.054688 "/>
</g>
<mask id="mask5">
  <g filter="url(#alpha)">
<rect x="0" y="0" width="200" height="200" style="fill:rgb(0%,0%,0%);fill-opacity:0.972549;stroke:none;"/>
  </g>
</mask>
<clipPath id="clip6">
  <rect x="0" y="0" width="200" height="200"/>
</clipPath>
<g id="surface20" clip-path="url(#clip6)">
<path style=" stroke:none;fill-rule:evenodd;fill:rgb(3.921569%,31.372549%,46.666667%);fill-opacity:1;" d="M 90.429688 124.804688 C 96.679688 124.804688 102.929688 124.804688 109.179688 124.804688 C 108.382812 132.039062 104.34375 135.101562 97.070312 133.984375 C 92.65625 132.5 90.441406 129.441406 90.429688 124.804688 Z M 90.429688 124.804688 "/>
</g>
<mask id="mask6">
  <g filter="url(#alpha)">
<rect x="0" y="0" width="200" height="200" style="fill:rgb(0%,0%,0%);fill-opacity:0.996078;stroke:none;"/>
  </g>
</mask>
<clipPath id="clip7">
  <rect x="0" y="0" width="200" height="200"/>
</clipPath>
<g id="surface23" clip-path="url(#clip7)">
<path style=" stroke:none;fill-rule:evenodd;fill:rgb(94.117647%,78.431373%,62.352941%);fill-opacity:1;" d="M 118.164062 162.304688 C 108.136719 162.238281 98.109375 162.304688 88.085938 162.5 C 87.042969 163.410156 87.042969 164.324219 88.085938 165.234375 C 97.722656 165.496094 107.355469 165.496094 116.992188 165.234375 C 119.457031 164.976562 121.539062 164 123.242188 162.304688 C 124.550781 162.367188 125.851562 162.304688 127.148438 162.109375 C 136.003906 153.253906 144.855469 144.402344 153.710938 135.546875 C 158.871094 133.042969 163.363281 133.890625 167.1875 138.085938 C 169.011719 141.730469 169.011719 145.378906 167.1875 149.023438 C 156.964844 159.246094 146.746094 169.464844 136.523438 179.6875 C 135.65625 180.1875 134.746094 180.578125 133.789062 180.859375 C 105.792969 181.054688 77.800781 181.121094 49.804688 181.054688 C 49.804688 168.425781 49.804688 155.792969 49.804688 143.164062 C 52.328125 140.835938 54.804688 138.425781 57.226562 135.9375 C 60.496094 133.523438 64.140625 131.960938 68.164062 131.25 C 73.261719 130.898438 78.339844 131.027344 83.398438 131.640625 C 86.65625 132.554688 89.648438 133.984375 92.382812 135.9375 C 94.855469 138.410156 97.332031 140.886719 99.804688 143.359375 C 105.925781 143.488281 112.042969 143.621094 118.164062 143.75 C 123.625 145.882812 125.773438 149.851562 124.609375 155.664062 C 123.429688 158.859375 121.28125 161.074219 118.164062 162.304688 Z M 118.164062 162.304688 "/>
</g>
<mask id="mask7">
  <g filter="url(#alpha)">
<rect x="0" y="0" width="200" height="200" style="fill:rgb(0%,0%,0%);fill-opacity:0.996078;stroke:none;"/>
  </g>
</mask>
<clipPath id="clip8">
  <rect x="0" y="0" width="200" height="200"/>
</clipPath>
<g id="surface26" clip-path="url(#clip8)">
<path style=" stroke:none;fill-rule:evenodd;fill:rgb(0%,19.607843%,35.294118%);fill-opacity:1;" d="M 49.804688 143.164062 C 49.804688 155.792969 49.804688 168.425781 49.804688 181.054688 C 49.929688 183.992188 48.628906 186.011719 45.898438 187.109375 C 36.003906 187.371094 26.105469 187.371094 16.210938 187.109375 C 14.453125 186.394531 13.214844 185.15625 12.5 183.398438 C 12.238281 169.335938 12.238281 155.273438 12.5 141.210938 C 13.214844 139.453125 14.453125 138.214844 16.210938 137.5 C 26.105469 137.238281 36.003906 137.238281 45.898438 137.5 C 48.511719 138.496094 49.8125 140.382812 49.804688 143.164062 Z M 49.804688 143.164062 "/>
</g>
</defs>
<g id="surface1">
<use xlink:href="#surface5" mask="url(#mask0)"/>
<path style=" stroke:none;fill-rule:evenodd;fill:rgb(5.098039%,31.372549%,46.666667%);fill-opacity:1;" d="M 131.054688 59.960938 C 130.773438 60.582031 130.382812 61.167969 129.882812 61.71875 C 128.351562 62.148438 126.789062 62.410156 125.195312 62.5 C 124.636719 62.679688 124.179688 63.007812 123.828125 63.476562 C 123.046875 64.972656 122.460938 66.535156 122.070312 68.164062 C 122.046875 68.96875 122.304688 69.617188 122.851562 70.117188 C 123.355469 70.820312 123.941406 71.46875 124.609375 72.070312 C 124.804688 73.105469 124.867188 74.144531 124.804688 75.195312 C 123.058594 77.265625 121.105469 79.15625 118.945312 80.859375 C 117.902344 81.121094 116.863281 81.121094 115.820312 80.859375 C 113.960938 78.164062 111.617188 77.640625 108.789062 79.296875 C 106.394531 80.242188 105.484375 82 106.054688 84.570312 C 106.054688 84.699219 106.054688 84.832031 106.054688 84.960938 C 105.773438 85.582031 105.382812 86.167969 104.882812 86.71875 C 101.789062 87.332031 98.664062 87.460938 95.507812 87.109375 C 94.488281 86.675781 93.835938 85.960938 93.554688 84.960938 C 93.554688 84.832031 93.554688 84.699219 93.554688 84.570312 C 93.808594 82.875 93.417969 81.378906 92.382812 80.078125 C 90.855469 79.378906 89.292969 78.792969 87.695312 78.320312 C 86.046875 78.59375 84.746094 79.441406 83.789062 80.859375 C 82.746094 81.121094 81.707031 81.121094 80.664062 80.859375 C 78.503906 79.15625 76.550781 77.265625 74.804688 75.195312 C 74.742188 74.144531 74.804688 73.105469 75 72.070312 C 75.957031 71.3125 76.675781 70.398438 77.148438 69.335938 C 77.460938 67.308594 77.003906 65.355469 75.78125 63.476562 C 75.429688 63.007812 74.972656 62.679688 74.414062 62.5 C 73.113281 62.371094 71.808594 62.238281 70.507812 62.109375 C 69.488281 61.675781 68.835938 60.960938 68.554688 59.960938 C 68.386719 56.921875 68.582031 53.925781 69.140625 50.976562 C 69.492188 50.507812 69.949219 50.179688 70.507812 50 C 72.117188 49.945312 73.679688 49.683594 75.195312 49.21875 C 76.648438 47.292969 77.367188 45.144531 77.34375 42.773438 C 76.5625 41.730469 75.78125 40.691406 75 39.648438 C 74.691406 38.425781 74.820312 37.253906 75.390625 36.132812 C 77.03125 34.363281 78.789062 32.734375 80.664062 31.25 C 81.707031 30.988281 82.746094 30.988281 83.789062 31.25 C 84.441406 31.902344 85.089844 32.550781 85.742188 33.203125 C 88.402344 33.871094 90.808594 33.285156 92.96875 31.445312 C 93.433594 29.929688 93.695312 28.367188 93.75 26.757812 C 93.929688 26.199219 94.257812 25.742188 94.726562 25.390625 C 98.101562 24.621094 101.488281 24.621094 104.882812 25.390625 C 105.351562 25.742188 105.675781 26.199219 105.859375 26.757812 C 105.914062 28.367188 106.175781 29.929688 106.640625 31.445312 C 107.257812 32.046875 107.972656 32.503906 108.789062 32.8125 C 111.617188 34.46875 113.960938 33.945312 115.820312 31.25 C 116.863281 30.988281 117.902344 30.988281 118.945312 31.25 C 120.691406 32.605469 122.316406 34.101562 123.828125 35.742188 C 124.738281 36.898438 125 38.199219 124.609375 39.648438 C 123.828125 40.691406 123.046875 41.730469 122.265625 42.773438 C 122.195312 45.164062 122.910156 47.3125 124.414062 49.21875 C 125.800781 49.675781 127.230469 49.9375 128.710938 50 C 129.425781 50.105469 130.011719 50.433594 130.46875 50.976562 C 131.027344 53.925781 131.222656 56.921875 131.054688 59.960938 Z M 131.054688 59.960938 "/>
<path style=" stroke:none;fill-rule:evenodd;fill:rgb(83.529412%,58.039216%,3.137255%);fill-opacity:1;" d="M 111.914062 58.789062 C 111.421875 51.265625 107.382812 47.226562 99.804688 46.679688 C 92.59375 47.121094 88.558594 50.898438 87.695312 58.007812 C 86.804688 51.90625 89.148438 47.414062 94.726562 44.53125 C 103.3125 42.050781 109.105469 44.980469 112.109375 53.320312 C 112.429688 55.214844 112.363281 57.039062 111.914062 58.789062 Z M 111.914062 58.789062 "/>
<path style=" stroke:none;fill-rule:evenodd;fill:rgb(97.254902%,70.196078%,0.392157%);fill-opacity:1;" d="M 111.914062 58.789062 C 110.128906 65.027344 105.964844 68.28125 99.414062 68.554688 C 92.773438 68.03125 88.867188 64.515625 87.695312 58.007812 C 88.558594 50.898438 92.59375 47.121094 99.804688 46.679688 C 107.382812 47.226562 111.421875 51.265625 111.914062 58.789062 Z M 111.914062 58.789062 "/>
<use xlink:href="#surface8" mask="url(#mask1)"/>
<use xlink:href="#surface11" mask="url(#mask2)"/>
<path style=" stroke:none;fill-rule:evenodd;fill:rgb(84.313725%,58.039216%,2.352941%);fill-opacity:1;" d="M 68.554688 59.960938 C 68.835938 60.960938 69.488281 61.675781 70.507812 62.109375 C 71.808594 62.238281 73.113281 62.371094 74.414062 62.5 C 74.972656 62.679688 75.429688 63.007812 75.78125 63.476562 C 77.003906 65.355469 77.460938 67.308594 77.148438 69.335938 C 76.359375 66.070312 74.277344 64.769531 70.898438 65.429688 C 70.3125 64.941406 69.660156 64.550781 68.945312 64.257812 C 68.65625 62.84375 68.523438 61.410156 68.554688 59.960938 Z M 68.554688 59.960938 "/>
<path style=" stroke:none;fill-rule:evenodd;fill:rgb(83.921569%,58.039216%,2.745098%);fill-opacity:1;" d="M 131.054688 59.960938 C 131.085938 61.410156 130.953125 62.84375 130.664062 64.257812 C 129.949219 64.550781 129.296875 64.941406 128.710938 65.429688 C 124.882812 64.703125 122.929688 66.265625 122.851562 70.117188 C 122.304688 69.617188 122.046875 68.96875 122.070312 68.164062 C 122.460938 66.535156 123.046875 64.972656 123.828125 63.476562 C 124.179688 63.007812 124.636719 62.679688 125.195312 62.5 C 126.789062 62.410156 128.351562 62.148438 129.882812 61.71875 C 130.382812 61.167969 130.773438 60.582031 131.054688 59.960938 Z M 131.054688 59.960938 "/>
<use xlink:href="#surface14" mask="url(#mask3)"/>
<path style=" stroke:none;fill-rule:evenodd;fill:rgb(86.27451%,57.647059%,0.784314%);fill-opacity:1;" d="M 73.632812 74.804688 C 74.082031 77.8125 72.78125 79.570312 69.726562 80.078125 C 69.28125 80.523438 68.890625 80.980469 68.554688 81.445312 C 68.371094 80.027344 68.632812 78.726562 69.335938 77.539062 C 70.820312 76.699219 72.25 75.789062 73.632812 74.804688 Z M 73.632812 74.804688 "/>
<path style=" stroke:none;fill-rule:evenodd;fill:rgb(84.705882%,58.823529%,2.352941%);fill-opacity:1;" d="M 125.976562 74.804688 C 127.332031 75.808594 128.765625 76.722656 130.273438 77.539062 C 130.976562 78.726562 131.238281 80.027344 131.054688 81.445312 C 129.503906 80.238281 127.875 79.066406 126.171875 77.929688 C 125.976562 76.894531 125.914062 75.855469 125.976562 74.804688 Z M 125.976562 74.804688 "/>
<path style=" stroke:none;fill-rule:evenodd;fill:rgb(84.705882%,58.431373%,1.568627%);fill-opacity:1;" d="M 74.804688 75.195312 C 76.550781 77.265625 78.503906 79.15625 80.664062 80.859375 C 81.707031 81.121094 82.746094 81.121094 83.789062 80.859375 C 84.746094 79.441406 86.046875 78.59375 87.695312 78.320312 C 89.292969 78.792969 90.855469 79.378906 92.382812 80.078125 C 93.417969 81.378906 93.808594 82.875 93.554688 84.570312 C 92.03125 82.828125 90.078125 81.789062 87.695312 81.445312 C 86.992188 81.476562 86.339844 81.671875 85.742188 82.03125 C 84.25 84.222656 82.296875 84.742188 79.882812 83.59375 C 78.386719 82.097656 76.886719 80.597656 75.390625 79.101562 C 74.875 77.855469 74.679688 76.554688 74.804688 75.195312 Z M 74.804688 75.195312 "/>
<path style=" stroke:none;fill-rule:evenodd;fill:rgb(84.705882%,58.431373%,1.568627%);fill-opacity:1;" d="M 124.804688 75.195312 C 124.929688 76.554688 124.734375 77.855469 124.21875 79.101562 C 122.578125 80.871094 120.820312 82.5 118.945312 83.984375 C 117.902344 84.246094 116.863281 84.246094 115.820312 83.984375 C 114.863281 82.566406 113.5625 81.71875 111.914062 81.445312 C 109.53125 81.789062 107.578125 82.828125 106.054688 84.570312 C 105.484375 82 106.394531 80.242188 108.789062 79.296875 C 111.617188 77.640625 113.960938 78.164062 115.820312 80.859375 C 116.863281 81.121094 117.902344 81.121094 118.945312 80.859375 C 121.105469 79.15625 123.058594 77.265625 124.804688 75.195312 Z M 124.804688 75.195312 "/>
<path style=" stroke:none;fill-rule:evenodd;fill:rgb(85.490196%,58.431373%,0.784314%);fill-opacity:1;" d="M 93.554688 84.960938 C 93.835938 85.960938 94.488281 86.675781 95.507812 87.109375 C 98.664062 87.460938 101.789062 87.332031 104.882812 86.71875 C 105.382812 86.167969 105.773438 85.582031 106.054688 84.960938 C 106.515625 89.710938 104.367188 91.53125 99.609375 90.429688 C 95.027344 91.382812 93.011719 89.558594 93.554688 84.960938 Z M 93.554688 84.960938 "/>
<use xlink:href="#surface17" mask="url(#mask4)"/>
<use xlink:href="#surface20" mask="url(#mask5)"/>
<use xlink:href="#surface23" mask="url(#mask6)"/>
<use xlink:href="#surface26" mask="url(#mask7)"/>
<path style=" stroke:none;fill-rule:evenodd;fill:rgb(82.352941%,66.666667%,50.980392%);fill-opacity:1;" d="M 118.164062 162.304688 C 119.855469 162.304688 121.550781 162.304688 123.242188 162.304688 C 121.539062 164 119.457031 164.976562 116.992188 165.234375 C 107.355469 165.496094 97.722656 165.496094 88.085938 165.234375 C 87.042969 164.324219 87.042969 163.410156 88.085938 162.5 C 98.109375 162.304688 108.136719 162.238281 118.164062 162.304688 Z M 118.164062 162.304688 "/>
<path style=" stroke:none;fill-rule:evenodd;fill:rgb(92.54902%,92.54902%,92.941176%);fill-opacity:1;" d="M 29.101562 165.429688 C 35.421875 165.300781 37.960938 168.292969 36.71875 174.414062 C 34.390625 177.84375 31.332031 178.691406 27.539062 176.953125 C 23.46875 172.460938 23.992188 168.621094 29.101562 165.429688 Z M 29.101562 165.429688 "/>
</g>
</svg>
